<?xml version="1.0" encoding="UTF-8" standalone="no"?>
<!-- Svg Vector Icons : http://www.onlinewebfonts.com/icon -->

<svg
   version="1.1"
   x="0px"
   y="0px"
   viewBox="0 0 256 256"
   enable-background="new 0 0 1000 1000"
   xml:space="preserve"
   id="svg14"
   sodipodi:docname="options-menu.svg"
   inkscape:version="1.1.2 (0a00cf5339, 2022-02-04)"
   width="64"
   height="64"
   xmlns:inkscape="http://www.inkscape.org/namespaces/inkscape"
   xmlns:sodipodi="http://sodipodi.sourceforge.net/DTD/sodipodi-0.dtd"
   xmlns="http://www.w3.org/2000/svg"
   xmlns:svg="http://www.w3.org/2000/svg"><defs
   id="defs18" /><sodipodi:namedview
   id="namedview16"
   pagecolor="#505050"
   bordercolor="#eeeeee"
   borderopacity="1"
   inkscape:pageshadow="0"
   inkscape:pageopacity="0"
   inkscape:pagecheckerboard="0"
   showgrid="false"
   inkscape:zoom="1.185111"
   inkscape:cx="98.303031"
   inkscape:cy="215.59163"
   inkscape:window-width="1920"
   inkscape:window-height="1016"
   inkscape:window-x="0"
   inkscape:window-y="1107"
   inkscape:window-maximized="1"
   inkscape:current-layer="g12" />
<metadata
   id="metadata2"> Svg Vector Icons : http://www.onlinewebfonts.com/icon </metadata>
<g
   id="g12"><g
     transform="matrix(0.1,0,0,-0.1,0,512)"
     id="g10" /><path
     style="fill:#00a1cc;fill-opacity:1;stroke:none;stroke-width:0.277624;stroke-opacity:1"
     d="m 119.78193,40.463986 c -0.3972,0.251943 -1.33232,2.684278 -2.07803,5.405198 -1.77156,6.463875 -2.26348,7.593477 -4.04196,9.281597 -1.31269,1.245975 -26.92445,12.045451 -28.566695,12.045451 -0.325333,0 -3.592235,-1.640813 -7.259808,-3.646278 l -6.668296,-3.646257 -6.085594,6.085574 -6.085585,6.085596 2.545397,4.08488 c 1.399962,2.246696 3.070454,5.272442 3.712195,6.723856 l 1.166819,2.638987 -1.638406,4.579292 c -1.519488,4.246935 -6.89504,17.777838 -8.714205,21.934718 -0.945323,2.1601 -3.322484,3.72897 -7.468756,4.92915 -1.679632,0.48619 -4.240733,1.38622 -5.691332,2.00006 l -2.637442,1.11609 v 8.42685 8.42686 l 5.700259,1.74472 c 8.793424,2.69148 8.856543,2.75521 13.340892,13.47068 2.108454,5.03821 4.573373,11.22933 5.477599,13.75804 l 1.644056,4.59768 -1.450448,3.17585 c -0.797754,1.74672 -2.478603,4.75673 -3.735214,6.68895 l -2.284768,3.51309 6.432952,6.43294 6.43295,6.43296 3.793486,-2.24225 c 2.086412,-1.23324 5.120389,-2.90986 6.74215,-3.72584 l 2.948671,-1.48359 6.212984,2.56976 c 3.417137,1.41337 8.836559,3.55515 12.043139,4.75947 11.76566,4.41897 11.71367,4.36915 14.14917,13.55781 l 1.54205,5.81779 8.95074,-0.002 8.95077,-0.002 1.26355,-5.44699 c 2.10981,-9.09495 3.0737,-10.13193 12.46699,-13.41206 2.66557,-0.9308 7.41298,-2.78442 10.54977,-4.11913 3.13679,-1.3347 6.51446,-2.6012 7.50591,-2.81443 2.42406,-0.52138 5.0928,0.43323 10.26799,3.67279 2.36343,1.47944 4.51708,2.68991 4.78589,2.68991 0.75077,0 12.29446,-12.12538 12.2921,-12.91152 -0.002,-0.38068 -0.53723,-1.56667 -1.19131,-2.63552 -2.39209,-3.90899 -4.9141,-9.38252 -4.90422,-10.64362 0.007,-0.71188 0.90031,-3.41814 1.98828,-6.01393 1.08795,-2.59581 3.42423,-8.53654 5.19172,-13.20166 1.76746,-4.66511 3.61671,-8.92742 4.10939,-9.47185 0.89431,-0.98818 5.01466,-2.58163 11.04933,-4.27303 l 3.19271,-0.89457 v -9.11168 c 0,-9.00598 -0.0145,-9.11454 -1.24932,-9.35803 -4.84465,-0.95532 -9.79319,-2.2351 -10.96754,-2.83641 -2.2948,-1.17506 -3.12457,-2.47659 -5.83583,-9.15395 -1.42599,-3.51195 -3.98696,-9.59419 -5.69105,-13.516073 l -3.09835,-7.130709 3.21871,-6.509624 c 2.2126,-4.474807 3.1057,-6.865763 2.85714,-7.648912 -0.19887,-0.626603 -2.68089,-3.594219 -5.51555,-6.594701 l -5.15396,-5.455413 -2.74425,1.584005 c -7.02402,4.054325 -9.97257,5.454156 -11.40295,5.413472 -0.85182,-0.02418 -4.49921,-1.283471 -8.10531,-2.798352 -3.6061,-1.51489 -9.85952,-3.968173 -13.89646,-5.451758 l -7.33992,-2.697432 -1.14617,-3.886769 c -2.72106,-9.227398 -3.03031,-9.970747 -4.44069,-10.674059 -1.57534,-0.785588 -14.26339,-0.977515 -15.43634,-0.23351 z m 23.58416,46.065809 c 13.40152,4.894606 24.17635,16.871525 27.59588,30.674565 1.1484,4.63552 1.1893,15.00545 0.0823,20.87643 -1.61446,8.56263 -7.79,18.42333 -15.39473,24.58129 -8.29783,6.71916 -17.01537,9.25805 -30.14822,8.78028 -6.06814,-0.22073 -7.82836,-0.49673 -11.04727,-1.73208 -14.18286,-5.44313 -24.480037,-16.53472 -28.174264,-30.34786 -1.814514,-6.78469 -1.812703,-17.41571 0.0043,-23.30405 4.111934,-13.32783 13.827804,-23.913982 26.856714,-29.262329 4.72387,-1.939157 8.18122,-2.355215 17.63573,-2.122269 7.2756,0.179252 8.48832,0.358048 12.58982,1.856023 z"
     id="path23846" /><path
     style="fill:#00a1cc;fill-opacity:1;stroke:none;stroke-width:0.298749;stroke-opacity:1"
     d="M 113.49652,6.4931518 C 91.786424,8.9691246 68.70995,18.672729 51.613152,32.514966 45.387548,37.555457 34.031977,49.318079 29.556111,55.362654 16.321955,73.235171 8.028084,95.100687 6.0898661,117.22783 2.4183792,159.14241 20.477471,199.71797 54.432959,225.84612 c 12.061161,9.28085 28.264562,16.91796 44.681414,21.0596 11.520277,2.90632 17.463347,3.47361 32.443177,3.09681 14.8141,-0.37263 22.25833,-1.61927 34.89565,-5.84379 18.01625,-6.02262 32.46715,-14.82914 46.2626,-28.19293 11.48259,-11.12328 18.22646,-20.33729 25.0578,-34.23594 12.91291,-26.27189 15.97214,-55.06939 8.86693,-83.467385 C 234.56547,50.00101 193.20974,13.16569 143.83373,6.6930673 136.38742,5.7169375 121.18119,5.6167324 113.49652,6.4931518 Z m 29.61556,9.1352262 c 12.39488,1.650109 24.15081,5.246357 35.30551,10.8003 12.35937,6.153762 21.28955,12.75319 31.23423,23.082278 22.70032,23.577723 33.80972,54.462284 31.34302,87.134784 -2.89879,38.39569 -24.7773,72.39562 -58.52926,90.95637 -18.65071,10.25633 -41.13181,15.17848 -62.08241,13.59271 C 80.394977,238.16807 46.337954,216.17299 27.775161,181.3857 9.1607501,146.5017 10.243753,103.44092 30.583266,69.733849 42.175397,50.523129 59.885657,34.463211 79.347884,25.513409 c 10.782024,-4.958177 22.165076,-8.373215 32.612736,-9.784207 8.23624,-1.11233 23.18987,-1.160722 31.15146,-0.100824 z"
     id="path23476" /></g>
</svg>
