<?xml version="1.0" encoding="UTF-8" standalone="no"?>
<!-- Svg Vector Icons : http://www.onlinewebfonts.com/icon -->

<svg
   version="1.1"
   x="0px"
   y="0px"
   viewBox="0 0 512 512"
   enable-background="new 0 0 1000 1000"
   xml:space="preserve"
   id="svg16"
   sodipodi:docname="food-white.svg"
   width="512"
   height="512"
   inkscape:version="1.1.2 (0a00cf5339, 2022-02-04)"
   xmlns:inkscape="http://www.inkscape.org/namespaces/inkscape"
   xmlns:sodipodi="http://sodipodi.sourceforge.net/DTD/sodipodi-0.dtd"
   xmlns="http://www.w3.org/2000/svg"
   xmlns:svg="http://www.w3.org/2000/svg"><defs
   id="defs20" /><sodipodi:namedview
   id="namedview18"
   pagecolor="#505050"
   bordercolor="#eeeeee"
   borderopacity="1"
   inkscape:pageshadow="0"
   inkscape:pageopacity="0"
   inkscape:pagecheckerboard="0"
   showgrid="false"
   inkscape:zoom="0.419"
   inkscape:cx="385.44153"
   inkscape:cy="394.98807"
   inkscape:window-width="1920"
   inkscape:window-height="1016"
   inkscape:window-x="0"
   inkscape:window-y="1107"
   inkscape:window-maximized="1"
   inkscape:current-layer="svg16" />
<metadata
   id="metadata2"> Svg Vector Icons : http://www.onlinewebfonts.com/icon </metadata>
<g
   id="g14"
   transform="matrix(0.49956131,0,0,0.49956131,6.2222478,6.2241234)"><g
     transform="matrix(0.1,0,0,-0.1,0,512)"
     id="g12"><path
       d="M 5562.1,4864.2 C 5177.7,4472.1 4685.7,4206.9 3892,3964.8 3517.2,3851.4 3375,3797.6 3154,3682.3 2750.4,3474.7 2556.3,3232.6 2510.2,2877 c -5.8,-48 -3.8,-96.1 3.8,-109.6 40.4,-59.6 1600.9,-219.1 2436.9,-247.9 347.9,-13.4 1460.6,19.2 1845,51.9 224.9,19.2 503.5,69.2 611.2,111.5 44.2,17.3 51.9,30.8 51.9,98 0,124.9 -53.8,328.6 -115.3,436.3 -84.6,148 -217.2,242.1 -605.4,428.6 -374.8,180.7 -505.5,274.8 -645.7,461.3 -142.2,190.3 -249.9,438.2 -324.8,755.3 -21.1,84.6 -38.4,155.7 -42.3,157.6 -3.9,3.7 -77,-65.5 -163.4,-155.8 z"
       id="path4"
       style="fill:#ffffff;fill-opacity:1" /><path
       d="M 2135.4,2400.3 C 1726,2196.6 1522.3,1725.7 1664.5,1316.4 c 17.3,-51.9 38.4,-92.3 44.2,-92.3 7.7,0 109.6,-17.3 224.9,-36.5 217.2,-38.4 399.8,-57.7 989.8,-111.5 451.6,-38.4 2771.4,-57.6 3440.2,-26.9 766.8,36.5 1437.6,109.6 1758.5,190.3 178.7,46.1 192.2,73 192.2,369 0,219.1 -1.9,224.9 -71.1,369 -80.7,159.5 -242.1,328.6 -409.4,428.6 l -94.2,53.8 -117.2,-32.7 c -326.7,-92.3 -468.9,-126.8 -620.8,-144.1 -338.3,-40.4 -897.5,-63.4 -1627.8,-65.3 -626.5,-1.9 -834.1,3.8 -1258.8,40.3 -641.9,53.8 -1297.3,126.9 -1587.5,176.8 -123,21.1 -228.7,38.4 -234.5,38.4 -7.7,0 -78.8,-32.6 -157.6,-73 z"
       id="path6"
       style="fill:#ffffff;fill-opacity:1" /><path
       d="M 8218.1,953.1 C 7926,872.4 7449.4,810.9 6738.3,759 6255.9,724.4 3499.9,724.4 3057.9,759 2469.8,805.1 2004.7,858.9 1743.3,908.9 l -261.4,50 -78.8,-53.8 c -190.3,-130.7 -344,-386.3 -382.5,-632.3 -21.1,-138.4 0,-472.8 40.4,-634.2 55.7,-221 151.8,-380.5 303.7,-503.5 l 107.6,-86.5 128.8,9.6 c 96.1,7.7 180.7,34.6 345.9,107.6 363.2,161.4 515.1,173 939.8,67.3 369,-92.2 511.2,-86.5 805.3,28.8 361.3,142.2 549.7,144.1 980.2,11.5 305.6,-92.2 424.7,-92.2 757.2,7.7 417,124.9 593.8,123 953.2,-19.2 294.1,-115.3 436.3,-121.1 805.3,-28.9 420.9,103.8 576.6,94.2 932.1,-63.4 124.9,-55.7 257.5,-99.9 320.9,-107.6 105.7,-13.5 111.5,-11.5 186.4,57.7 103.8,92.2 182.6,219.1 263.3,420.9 96.1,236.4 117.2,401.7 78.8,616.9 -44.2,263.3 -148,455.5 -357.5,666.9 -186.3,188.3 -180.6,186.4 -393.9,128.7 z"
       id="path8"
       style="fill:#ffffff;fill-opacity:1" /><path
       d="m 4009.2,-947.6 c -42.3,-7.7 -171.1,-51.9 -288.3,-96.1 -184.5,-71.1 -236.4,-82.6 -403.6,-90.3 -173,-9.6 -221,-3.8 -490.1,61.5 -399.7,96.1 -490.1,90.3 -789.9,-48 -157.6,-71.1 -257.5,-103.8 -370.9,-121.1 l -157.6,-23.1 121.1,-653.4 c 67.3,-359.4 186.4,-1024.4 263.3,-1479.9 l 138.4,-826.4 61.5,-40.3 c 224.9,-151.8 886,-342.1 1493.3,-428.6 509.3,-73 753.4,-88.4 1431.8,-86.5 887.9,1.9 1466.4,65.4 2142.9,238.3 392.1,99.9 797.6,255.6 797.6,303.7 0,30.8 192.2,1116.6 334.4,1887.3 78.8,428.6 153.8,834.1 165.3,903.3 11.5,69.2 25,138.4 30.7,155.7 7.7,26.9 -17.3,36.5 -140.3,53.8 -103.8,15.4 -211.4,51.9 -361.3,119.2 -296,136.5 -395.9,142.2 -789.9,48 -434.4,-103.8 -588.1,-94.2 -968.6,55.7 -163.3,63.4 -201.8,73 -355.5,73 -149.9,0 -201.8,-9.6 -394,-75 -209.5,-69.2 -234.5,-73 -461.3,-74.9 -224.9,0 -255.6,3.8 -467,71.1 -242.2,76.8 -417.1,99.9 -542,73 z"
       id="path10"
       style="fill:#ffffff;fill-opacity:1" /></g></g>
</svg>
