<?xml version="1.0" encoding="UTF-8" standalone="no"?>
<!-- Svg Vector Icons : http://www.onlinewebfonts.com/icon -->

<svg
   version="1.1"
   x="0px"
   y="0px"
   viewBox="0 0 512 512"
   enable-background="new 0 0 1000 1000"
   xml:space="preserve"
   id="svg10"
   sodipodi:docname="shower-white.svg"
   width="512"
   height="512"
   inkscape:version="1.1.2 (0a00cf5339, 2022-02-04)"
   xmlns:inkscape="http://www.inkscape.org/namespaces/inkscape"
   xmlns:sodipodi="http://sodipodi.sourceforge.net/DTD/sodipodi-0.dtd"
   xmlns="http://www.w3.org/2000/svg"
   xmlns:svg="http://www.w3.org/2000/svg"><defs
   id="defs14" /><sodipodi:namedview
   id="namedview12"
   pagecolor="#505050"
   bordercolor="#eeeeee"
   borderopacity="1"
   inkscape:pageshadow="0"
   inkscape:pageopacity="0"
   inkscape:pagecheckerboard="0"
   showgrid="false"
   inkscape:zoom="1.185111"
   inkscape:cx="313.47276"
   inkscape:cy="255.25036"
   inkscape:window-width="1920"
   inkscape:window-height="1016"
   inkscape:window-x="0"
   inkscape:window-y="1107"
   inkscape:window-maximized="1"
   inkscape:current-layer="g6" />
<metadata
   id="metadata2"> Svg Vector Icons : http://www.onlinewebfonts.com/icon </metadata>
<g
   id="g8"
   transform="matrix(0.49072368,0,0,0.49072368,10.63816,10.662696)"><g
     transform="matrix(1,0,0,-1,0,1920)"
     id="g6"><path
       d="m 25.9,930 v 664.6 c 0,22.6 8,41.8 23.9,57.8 l 182.5,182.5 c 6.1,6.3 18,13.6 35.9,21.9 17.9,8.3 39,16.4 63.4,24.4 24.4,8 52.6,14.8 84.6,20.4 32.1,5.6 63.1,8.5 93.1,8.5 47.1,0 88.8,-7 125.1,-21.1 2.8,-1.1 5.1,-2.7 7,-4.7 1.9,-2.1 3.9,-4.4 5.8,-7 1.9,-2.6 3.3,-4.5 4.1,-5.6 l -378.5,-378.5 -70.2,70.2 c -4.4,4.4 -10.3,6.6 -17.8,6.6 -9.4,0 -17.5,-4.1 -24.6,-12.4 -7,-8.3 -10.5,-20.8 -10.5,-37.6 V 930 Z m 276.2,534.2 378.1,378.1 c 6.9,-8 10.3,-17.1 10.3,-27.2 0,-11 -3.9,-20.4 -11.6,-28.1 L 357.7,1465.4 c -8,-7.7 -17.5,-11.6 -28.5,-11.6 -10.1,0 -19.2,3.5 -27.1,10.4 z M 706,1590.9 c -5.6,0 -10.5,1.9 -14.7,5.8 l -16.1,74.3 45,-45 c 4.1,-3.9 6.2,-8.7 6.2,-14.4 0,-5.8 -2,-10.7 -6,-14.7 -4,-4 -8.8,-6 -14.4,-6 z m 123.8,-41.3 c -5.6,0 -10.5,1.9 -14.7,5.8 l -16.1,74.3 45,-45 c 4.1,-3.9 6.2,-8.7 6.2,-14.4 0,-5.7 -2,-10.7 -6,-14.7 -3.9,-4 -8.7,-6 -14.4,-6 z m -206.6,-41.3 c -5.8,0 -10.6,1.9 -14.4,5.8 l -15.7,74.3 44.6,-45 c 4.1,-4.1 6.2,-9 6.2,-14.7 0,-5.6 -2,-10.5 -6,-14.4 -4,-4 -8.9,-6 -14.7,-6 z m 330.5,0 c -5.6,0 -10.5,1.9 -14.7,5.8 l -16.1,74.3 45,-45 c 4.1,-3.9 6.2,-8.7 6.2,-14.4 0,-5.8 -2,-10.7 -6,-14.7 -4,-4 -8.8,-6 -14.4,-6 z m -206.6,-41.2 c -5.8,0 -10.6,1.9 -14.4,5.8 l -15.7,74.3 44.6,-45 c 4.1,-4.1 6.2,-9 6.2,-14.7 0,-5.6 -2,-10.5 -6,-14.4 -4.1,-4 -9,-6 -14.7,-6 z m -206.4,-41.3 c -5.8,0 -10.6,1.9 -14.4,5.8 l -15.7,74.3 44.6,-45 c 4.1,-4.1 6.2,-9 6.2,-14.7 0,-5.6 -2,-10.5 -6,-14.4 -4.1,-4 -9,-6 -14.7,-6 z m 330.2,0 c -5.8,0 -10.6,1.9 -14.4,5.8 l -15.7,74.3 44.6,-45 c 4.1,-4.1 6.2,-9 6.2,-14.7 0,-5.6 -2,-10.5 -6,-14.4 -4,-4 -8.9,-6 -14.7,-6 z m -206.4,-41.3 c -5.8,0 -10.6,1.9 -14.4,5.8 l -15.7,74.3 44.6,-45 c 4.1,-4.1 6.2,-9 6.2,-14.7 0,-5.7 -2,-10.5 -6,-14.4 -4,-4 -8.9,-6 -14.7,-6 z m 123.8,-41.3 c -5.8,0 -10.6,1.9 -14.4,5.8 l -15.7,74.3 44.6,-45 c 4.1,-4.1 6.2,-9 6.2,-14.7 0,-5.6 -2,-10.5 -6,-14.4 -4,-4 -8.9,-6 -14.7,-6 z m -206.4,-41.3 c -5.8,0 -10.6,1.9 -14.4,5.8 l -15.7,74.3 44.6,-45 c 4.1,-4.1 6.2,-9 6.2,-14.7 0,-5.6 -2,-10.5 -6,-14.4 -4,-4 -8.9,-6 -14.7,-6 z m 123.9,-41.2 c -5.8,0 -10.6,1.9 -14.4,5.8 l -15.7,74.3 44.6,-45 c 4.1,-4.1 6.2,-9 6.2,-14.7 0,-5.7 -2,-10.5 -6,-14.4 -4.1,-4 -8.9,-6 -14.7,-6 z m -82.6,-82.6 c -5.8,0 -10.6,1.9 -14.4,5.8 l -15.7,74.3 44.6,-45 c 4.1,-4.1 6.2,-9 6.2,-14.7 0,-5.6 -2,-10.5 -6,-14.4 -4,-4 -8.9,-6 -14.7,-6 z"
       id="path4"
       style="fill:#ffffff;fill-opacity:1;stroke:#ffffff;stroke-opacity:1" /></g></g>
</svg>
