<?xml version="1.0" encoding="UTF-8" standalone="no"?>
<!-- Svg Vector Icons : http://www.onlinewebfonts.com/icon -->

<svg
   version="1.1"
   x="0px"
   y="0px"
   viewBox="0 0 512 512"
   enable-background="new 0 0 1000 1000"
   xml:space="preserve"
   id="svg16"
   sodipodi:docname="smile-white.svg"
   width="512"
   height="512"
   inkscape:version="1.1.2 (0a00cf5339, 2022-02-04)"
   xmlns:inkscape="http://www.inkscape.org/namespaces/inkscape"
   xmlns:sodipodi="http://sodipodi.sourceforge.net/DTD/sodipodi-0.dtd"
   xmlns="http://www.w3.org/2000/svg"
   xmlns:svg="http://www.w3.org/2000/svg"><defs
   id="defs20" /><sodipodi:namedview
   id="namedview18"
   pagecolor="#505050"
   bordercolor="#eeeeee"
   borderopacity="1"
   inkscape:pageshadow="0"
   inkscape:pageopacity="0"
   inkscape:pagecheckerboard="0"
   showgrid="false"
   inkscape:zoom="1.185111"
   inkscape:cx="253.56275"
   inkscape:cy="321.91078"
   inkscape:window-width="1920"
   inkscape:window-height="1016"
   inkscape:window-x="0"
   inkscape:window-y="1107"
   inkscape:window-maximized="1"
   inkscape:current-layer="svg16" />
<metadata
   id="metadata2"> Svg Vector Icons : http://www.onlinewebfonts.com/icon </metadata>

<path
   style="fill:#ffffff;stroke:none;stroke-width:0.327806;fill-opacity:1"
   d="m 244.38759,17.052991 c -6.17389,0.81055 -12.47956,0.82115 -18.68493,1.59321 -12.05375,1.49969 -24.0498,3.92906 -35.73084,7.25855 -50.16249,14.29804 -94.810294,45.35997 -126.082316,87.056219 -60.5205629,80.69399 -62.94852243,195.22804 -5.687431,278.30715 15.167904,22.00561 33.865949,41.53956 55.390987,57.40536 25.81438,19.02585 55.11269,32.48228 86.21294,40.1595 28.08476,6.92981 57.91903,8.38199 86.54074,4.61878 24.70706,-3.24855 48.49855,-10.26688 71.13387,-20.6616 83.2004,-38.20249 136.59669,-124.49738 137.67845,-215.26682 0.75068,-63.25964 -25.4869,-126.11346 -70.15373,-170.781919 -30.37121,-30.36892 -69.14736,-52.32598 -110.79509,-62.73824 -15.14463,-3.78619 -30.3699,-5.72764 -45.89282,-6.79085 -7.66345,-0.52488 -16.28834,-1.16257 -23.92983,-0.15934 m 1.96684,20.60622 c 6.65183,-0.78486 13.99501,-0.25103 20.65177,0.20488 14.18645,0.97165 28.11656,2.6746 41.95914,6.13525 69.76037,17.43973 128.34583,69.909309 152.53134,137.800849 9.67683,27.16593 13.93175,56.10266 12.6697,84.90171 -2.28153,52.13228 -24.28386,102.94415 -60.31628,140.62871 -35.26535,36.87816 -83.85765,61.07351 -134.71509,66.16105 -29.53596,2.95681 -59.38563,0.19669 -87.85196,-8.37544 -20.7924,-6.26109 -41.26289,-15.9248 -59.00505,-28.47321 C 111.52789,421.97042 93.243534,404.71144 78.329024,384.0564 31.766466,319.56781 25.117449,234.2747 58.092586,162.45965 69.646102,137.29825 86.811,114.4574 107.03695,95.616431 c 27.28492,-25.4161 61.4177,-43.58998 97.68614,-52.18823 13.84324,-3.28186 27.61305,-4.11494 41.63134,-5.76899 m -84.57391,93.797869 c -18.10635,2.37856 -34.51107,9.61619 -44.8835,25.42987 -4.49553,6.85343 -11.6912,19.30547 -1.99241,25.244 1.1742,0.7192 2.58016,1.12372 3.93335,1.3286 8.74454,1.324 10.57272,-6.47712 13.87012,-12.47695 1.62591,-2.95878 3.86909,-5.72742 6.21946,-8.13942 9.74271,-9.99841 24.63526,-12.56218 37.93205,-9.95415 9.67552,1.89767 17.71725,7.39792 23.36567,15.47112 4.22804,6.0431 5.555,16.5424 15.31542,15.15479 5.29341,-0.75264 9.83745,-5.64809 9.03334,-11.22112 -1.01324,-7.02193 -5.68579,-14.23529 -10.01807,-19.66835 -12.0508,-15.11283 -33.49487,-23.70102 -52.77543,-21.16839 m 177.01516,0 c -18.1693,2.38676 -34.97885,9.67027 -45.21951,25.75767 -4.23984,6.66069 -11.33716,18.97603 -1.98454,24.75983 1.11028,0.68643 2.31464,1.20502 3.60587,1.41645 8.619,1.41219 10.57272,-5.34061 13.86914,-11.42501 1.81145,-3.34395 4.11494,-6.47024 6.78754,-9.17726 9.81582,-9.943 24.69558,-12.51333 38.02056,-9.89973 9.28674,1.82129 17.29504,7.13666 22.80546,14.81551 4.70073,6.54956 5.9759,17.416 16.53125,15.68649 5.69726,-0.93359 8.72619,-6.33714 8.13941,-11.75282 -0.70806,-6.49547 -5.64809,-13.71835 -9.59815,-18.68493 -12.11243,-15.22429 -33.50831,-24.05079 -52.95703,-21.4962 M 140.14534,235.37645 c -10.4085,1.63903 -9.90859,12.9916 -8.94419,21.16347 0.66315,5.62319 0.56678,11.39126 1.13224,17.04591 1.45612,14.56212 4.07988,29.16587 8.00076,43.27037 14.32151,51.52124 46.73397,108.32016 105.03686,115.47944 8.25022,1.0162 16.70236,0.75723 24.91324,-0.5081 53.15274,-8.20826 84.69848,-60.73914 98.90558,-108.08742 2.74374,-9.14218 5.09083,-18.45547 6.72986,-27.8635 2.42248,-13.92257 4.50733,-28.14311 4.50733,-42.28695 0,-5.35438 1.14732,-11.6771 -3.29117,-15.66584 -4.44177,-3.99136 -11.87641,-2.69129 -17.3606,-2.69129 H 317.4883 198.16697 159.48588 c -6.25224,0 -13.16501,-0.82869 -19.34054,0.14391 m 218.31869,20.50786 c 0,11.58302 -1.62264,23.32601 -3.52392,34.74742 -5.44157,32.65209 -16.90462,66.08894 -38.85548,91.45783 -8.79077,10.1587 -19.35136,18.84228 -31.70472,24.30353 -19.85389,8.77536 -43.12909,7.46086 -62.28311,-2.42577 -8.30398,-4.28442 -15.7809,-10.2931 -22.28588,-16.96067 -25.37054,-26.00812 -37.77897,-62.87644 -43.52246,-98.01395 -1.31876,-8.06828 -1.78195,-16.18312 -2.84207,-24.25763 -0.20783,-1.58265 -1.31221,-7.46742 0.009,-8.51377 0.85819,-0.67987 2.71292,-0.33699 3.736,-0.33699 h 10.16198 39.3367 z"
   id="path2270" /></svg>
