<?xml version="1.0" standalone="no"?>
<!DOCTYPE svg PUBLIC "-//W3C//DTD SVG 20010904//EN"
 "http://www.w3.org/TR/2001/REC-SVG-20010904/DTD/svg10.dtd">
<svg version="1.0" xmlns="http://www.w3.org/2000/svg"
 width="700.000000pt" height="700.000000pt" viewBox="0 0 700.000000 700.000000"
 preserveAspectRatio="xMidYMid meet">
<metadata>
Created by potrace 1.14, written by Peter Selinger 2001-2017
</metadata>
<g transform="translate(0.000000,700.000000) scale(0.100000,-0.100000)"
fill="#000000" stroke="none">
<path d="M3205 5579 c-33 -4 -89 -10 -125 -13 -62 -6 -88 -10 -155 -21 -16 -3
-48 -8 -70 -11 -68 -10 -222 -43 -324 -70 -900 -239 -1591 -776 -1895 -1474
-72 -167 -134 -372 -152 -505 -3 -27 -8 -52 -9 -55 -11 -18 -20 -174 -20 -345
0 -220 6 -292 36 -425 6 -25 12 -52 14 -60 2 -8 15 -51 30 -95 109 -323 330
-576 655 -753 232 -125 541 -216 925 -271 140 -20 182 -25 330 -37 44 -3 96
-8 115 -9 299 -28 1731 -28 2075 0 123 10 199 17 214 20 9 1 47 6 84 10 37 3
76 8 86 10 10 2 36 6 57 9 360 56 665 163 890 312 97 64 248 206 312 294 123
168 215 398 247 620 19 131 23 185 23 350 0 158 -12 325 -31 420 -45 226 -98
386 -194 590 -30 63 -140 253 -165 285 -4 6 -40 52 -78 102 -264 347 -638 631
-1105 838 -176 79 -527 189 -695 219 -19 3 -46 8 -60 11 -14 3 -41 8 -60 11
-19 2 -46 7 -60 9 -216 37 -705 56 -895 34z"/>
</g>
</svg>
